<svg width="30" height="30" viewBox="0 0 30 30" fill="none" xmlns="http://www.w3.org/2000/svg">
<path d="M10 15C10 15.3315 10.1317 15.6495 10.3661 15.8839C10.6005 16.1183 10.9185 16.25 11.25 16.25H18.75C19.0815 16.25 19.3995 16.1183 19.6339 15.8839C19.8683 15.6495 20 15.3315 20 15C20 14.6685 19.8683 14.3505 19.6339 14.1161C19.3995 13.8817 19.0815 13.75 18.75 13.75H11.25C10.9185 13.75 10.6005 13.8817 10.3661 14.1161C10.1317 14.3505 10 14.6685 10 15ZM12.5 18.75H8.75C7.75544 18.75 6.80161 18.3549 6.09835 17.6517C5.39509 16.9484 5 15.9946 5 15C5 14.0054 5.39509 13.0516 6.09835 12.3483C6.80161 11.6451 7.75544 11.25 8.75 11.25H12.5C12.8315 11.25 13.1495 11.1183 13.3839 10.8839C13.6183 10.6495 13.75 10.3315 13.75 10C13.75 9.66848 13.6183 9.35054 13.3839 9.11612C13.1495 8.8817 12.8315 8.75 12.5 8.75H8.75C7.0924 8.75 5.50269 9.40848 4.33058 10.5806C3.15848 11.7527 2.5 13.3424 2.5 15C2.5 16.6576 3.15848 18.2473 4.33058 19.4194C5.50269 20.5915 7.0924 21.25 8.75 21.25H12.5C12.8315 21.25 13.1495 21.1183 13.3839 20.8839C13.6183 20.6495 13.75 20.3315 13.75 20C13.75 19.6685 13.6183 19.3505 13.3839 19.1161C13.1495 18.8817 12.8315 18.75 12.5 18.75ZM21.25 8.75H17.5C17.1685 8.75 16.8505 8.8817 16.6161 9.11612C16.3817 9.35054 16.25 9.66848 16.25 10C16.25 10.3315 16.3817 10.6495 16.6161 10.8839C16.8505 11.1183 17.1685 11.25 17.5 11.25H21.25C22.2446 11.25 23.1984 11.6451 23.9017 12.3483C24.6049 13.0516 25 14.0054 25 15C25 15.9946 24.6049 16.9484 23.9017 17.6517C23.1984 18.3549 22.2446 18.75 21.25 18.75H17.5C17.1685 18.75 16.8505 18.8817 16.6161 19.1161C16.3817 19.3505 16.25 19.6685 16.25 20C16.25 20.3315 16.3817 20.6495 16.6161 20.8839C16.8505 21.1183 17.1685 21.25 17.5 21.25H21.25C22.9076 21.25 24.4973 20.5915 25.6694 19.4194C26.8415 18.2473 27.5 16.6576 27.5 15C27.5 13.3424 26.8415 11.7527 25.6694 10.5806C24.4973 9.40848 22.9076 8.75 21.25 8.75Z" fill="#10405A"/>
</svg>
